<?xml version="1.0" encoding="UTF-8" standalone="no"?>
<svg
        xmlns="http://www.w3.org/2000/svg" width="3125px" height="1250px" viewBox="0 0 3125 1250" version="1.1"
        style="fill-rule: evenodd; clip-rule: evenodd; stroke-miterlimit: 10;">
    <g id="g10">
        <g id="g70">
            <g id="g72">
                <g id="g78">
                    <path id="path80"
                          d="M229.251,624.946c0,0 76.961,-85.011 229.977,-118.123c153.017,-33.111 431.323,-58.166 536.911,-78.75c0,0 243.406,-135.122 339.15,-157.494l12.528,-10.733c0,0 288.145,-91.278 749.889,-17.006c0,0 104.694,14.317 178.072,40.272c0,0 33.111,-10.739 30.428,11.628c0,0 191.5,52.8 363.317,126.178c0,0 115.433,4.472 126.166,17.9c0,0 22.378,2.678 15.217,33.105c0,0 5.372,42.956 13.422,37.584c0,0 20.584,51.005 9.845,74.272c0,0 14.316,17 6.261,25.061c0,0 -4.472,8.945 40.266,52.795c0,0 13.428,100.222 2.689,151.227c0,0 -12.527,22.372 -8.055,24.161c0,0 -49.217,69.8 -140.495,79.645c0,0 -143.172,27.739 -173.6,22.366c0,0 34.906,-166.438 -99.327,-244.294c-134.228,-77.85 -272.034,4.478 -303.356,53.694c-31.322,49.217 -64.428,107.384 -53.689,224.606l-1203.58,-13.422c0,0 10.739,-215.656 -128.856,-280.984c-139.6,-65.327 -243.961,-6.216 -297.094,68.9c-51.9,73.378 -25.95,219.245 -25.95,219.245c0,0 -79.639,1.789 -86.8,-32.217c0,0 -134.228,-31.316 -144.967,-63.533c0,0 21.478,-16.106 29.534,-56.378c0,0 -51.012,-49.217 -17.9,-189.705"
                          style="fill: dodgerblue; fill-rule: nonzero;"></path>
                </g>
                <g id="g82">
                    <path id="path84"
                          d="M229.251,624.946c0,0 76.961,-85.011 229.977,-118.123c153.017,-33.111 431.323,-58.166 536.911,-78.75c0,0 243.406,-135.122 339.15,-157.494l12.528,-10.733c0,0 288.145,-91.278 749.889,-17.006c0,0 104.694,14.317 178.072,40.272c0,0 33.111,-10.739 30.428,11.628c0,0 191.5,52.8 363.317,126.178c0,0 115.433,4.472 126.166,17.9c0,0 22.378,2.678 15.217,33.105c0,0 5.372,42.956 13.422,37.584c0,0 20.584,51.005 9.845,74.272c0,0 14.316,17 6.261,25.061c0,0 -4.472,8.945 40.266,52.795c0,0 13.428,100.222 2.689,151.227c0,0 -12.527,22.372 -8.055,24.161c0,0 -49.217,69.8 -140.495,79.645c0,0 -143.172,27.739 -173.6,22.366c0,0 34.906,-166.438 -99.327,-244.294c-134.228,-77.85 -272.034,4.478 -303.356,53.694c-31.322,49.217 -64.428,107.384 -53.689,224.606l-1203.58,-13.422c0,0 10.739,-215.656 -128.856,-280.984c-139.6,-65.327 -243.961,-6.216 -297.094,68.9c-51.9,73.378 -25.95,219.245 -25.95,219.245c0,0 -79.639,1.789 -86.8,-32.217c0,0 -134.228,-31.316 -144.967,-63.533c0,0 21.478,-16.106 29.534,-56.378c0,0 -51.012,-49.217 -17.9,-189.705Z"
                          style="fill: none; fill-rule: nonzero; stroke: dodgerblue; stroke-width: 5.56px;"></path>
                </g>
                <g id="g86">
                    <path id="path88"
                          d="M2176.95,915.392c-53.511,-210.556 260.478,-290.372 314.045,-79.817c52.294,205.889 -261.689,285.706 -314.045,79.817m338.728,-109.756c-74.178,-222.355 -436.244,-100.117 -362.089,122.522c85.678,257.256 448.995,134.284 362.089,-122.522"
                          style="fill: rgb(55,53,53); fill-rule: nonzero;"></path>
                </g>
                <g id="g94">
                    <path id="path96"
                          d="M2307.21,1025.69c-15.527,-1.605 -11.577,-9.972 -11.577,-9.972c0,0 23.439,-99.739 31.577,-99.866c8.134,-0.123 -5.322,105.372 -5.322,105.372c0.184,3.739 0.834,6.011 -14.678,4.466m-48.188,-16.394c0,0 -50.089,-30.422 -61.178,-63.522c-2.456,-20.017 18.805,-26.078 18.805,-26.078c0,0 96.05,-32.417 92.961,-42.5c6.439,-7.033 -116.772,-11.217 -116.772,-11.217l-8.805,-19.189c0,0 5.561,-45.605 40.516,-82.094l19.989,-3.128c0,0 68.378,93.395 78.85,90.245c9.178,0.072 -25.166,-117.089 -25.166,-117.089l14.844,-15.345c0,0 53.106,-6.4 86.144,13.461c0,0 15.534,11.778 10.923,20.245c0,0 -64.928,97.033 -59.161,101.683c1.472,17.8 101.372,-59.983 101.372,-59.983c0,0 17.172,1.317 19.7,12.155c0,0 22.511,44.445 12.944,85.545c-8.033,15.355 -20.205,16.039 -20.205,16.039c0,0 -103.967,-36.789 -109.061,-22.128c-3.389,9.978 86.788,74.172 86.788,74.172c0,0 5.306,18.617 -12.272,31.306c-17.589,12.633 -44.566,28.944 -71.639,32.044c-27.072,3.1 -19.666,-26.45 -19.666,-26.45c0,0 0.383,-99.616 -9.317,-98.6c-8.322,-3.616 -48.533,107.689 -48.533,107.689l-22.061,2.739Zm-75.35,-111.494c-2.328,-14.245 1.838,-13.812 1.838,-13.812c0,0 108.389,-7.305 105.195,-3.144c3.211,5.678 -100.811,29.7 -100.811,29.7c0,0 -3.889,1.556 -6.222,-12.744m80.277,-159.978c12.034,-6.461 15.195,-3.139 15.195,-3.139c0,0 41.983,96.067 35.583,98.989c-6.4,2.916 -58.761,-84.9 -58.761,-84.9c0,0 -4.006,-4.556 7.983,-10.95m186.561,31.733c0,0 5.856,5.261 -9.216,14.167c0,0 -78.295,67.344 -76.8,58.3c-9.806,0.694 58.211,-81.861 66.839,-88.189l19.177,15.722Zm14.612,177.678c-4.178,6.717 -9.8,2.717 -9.8,2.717c0,0 -86.662,-53.495 -84.328,-58.878c2.283,-5.439 96.494,34.4 96.494,34.4c11.311,2.866 1.761,15.055 -2.366,21.761m25.877,-111.667c-53.572,-210.55 -367.555,-130.739 -314.044,79.822c52.355,205.884 366.339,126.073 314.044,-79.822"
                          style="fill: rgb(210, 212, 213); fill-rule: nonzero;"></path>
                </g>
                <g id="g98">
                    <path id="path100"
                          d="M2358.6,1023.92c-27.072,3.106 -19.666,-26.45 -19.666,-26.45c0,0 0.383,-99.611 -9.317,-98.6c-8.322,-3.617 -48.533,107.689 -48.533,107.689l-22.061,2.739c0,0 -50.089,-30.417 -61.178,-63.517c-2.456,-20.022 18.805,-26.083 18.805,-26.083c0,0 96.05,-32.417 92.961,-42.5c6.439,-7.034 -116.772,-11.217 -116.772,-11.217l-8.805,-19.189c0,0 5.561,-45.605 40.516,-82.094l19.989,-3.128c0,0 68.378,93.394 78.85,90.244c9.178,0.073 -25.166,-117.088 -25.166,-117.088l14.844,-15.339c0,0 53.106,-6.406 86.144,13.455c0,0 15.534,11.784 10.923,20.245c0,0 -64.928,97.039 -59.161,101.689c1.472,17.794 101.372,-59.989 101.372,-59.989c0,0 17.172,1.316 19.7,12.155c0,0 22.511,44.445 12.944,85.55c-8.033,15.35 -20.205,16.034 -20.205,16.034c0,0 -103.967,-36.789 -109.061,-22.128c-3.389,9.978 86.788,74.178 86.788,74.178c0,0 5.306,18.611 -12.272,31.3c-17.589,12.638 -44.566,28.944 -71.639,32.044"
                          style="fill: rgb(77, 76, 78); fill-rule: nonzero;"></path>
                </g>
                <g id="g102">
                    <path id="path104"
                          d="M2455.32,949.957c0,0 -86.667,-53.495 -84.328,-58.884c2.278,-5.433 96.489,34.406 96.489,34.406c11.317,2.861 1.767,15.055 -2.361,21.761c-4.178,6.717 -9.8,2.717 -9.8,2.717"
                          style="fill: rgb(77, 76, 78); fill-rule: nonzero;"></path>
                </g>
                <g id="g106">
                    <path id="path108"
                          d="M2364.49,842.03c-9.806,0.694 58.217,-81.861 66.839,-88.189l19.178,15.717c0,0 5.855,5.261 -9.217,14.172c0,0 -78.294,67.344 -76.8,58.3"
                          style="fill: rgb(77, 76, 78); fill-rule: nonzero;"></path>
                </g>
                <g id="g110">
                    <path id="path112"
                          d="M2314.72,833.675c-6.394,2.917 -58.755,-84.894 -58.755,-84.894c0,0 -4.011,-4.562 7.978,-10.956c12.033,-6.461 15.2,-3.133 15.2,-3.133c0,0 41.977,96.066 35.577,98.983"
                          style="fill: rgb(77, 76, 78); fill-rule: nonzero;"></path>
                </g>
                <g id="g114">
                    <path id="path116"
                          d="M2183.67,897.808c-2.327,-14.244 1.839,-13.811 1.839,-13.811c0,0 108.389,-7.311 105.2,-3.15c3.211,5.684 -100.816,29.706 -100.816,29.706c0,0 -3.889,1.55 -6.223,-12.745"
                          style="fill: rgb(77, 76, 78); fill-rule: nonzero;"></path>
                </g>
                <g id="g118">
                    <path id="path120"
                          d="M2307.21,1025.69c-15.527,-1.605 -11.577,-9.972 -11.577,-9.972c0,0 23.439,-99.739 31.577,-99.866c8.134,-0.123 -5.322,105.372 -5.322,105.372c0.184,3.739 0.834,6.011 -14.678,4.466"
                          style="fill: rgb(77, 76, 78); fill-rule: nonzero;"></path>
                </g>
                <g id="g122">
                    <path id="path124"
                          d="M2813.37,501.006c0,0 -68.456,-9.394 -185.906,77.85c0,0 40.939,27.517 97.983,22.15c0,0 103.356,6.711 106.717,-13.428c0,0 7.828,-35.338 -7.833,-78.072c0,0 6.489,8.95 -10.961,-8.5"
                          style="fill: rgb(238, 51, 56); fill-rule: nonzero;"></path>
                </g>
                <g id="g126">
                    <path id="path128"
                          d="M685.834,1031.89c-215.333,23.833 -250.888,-297.278 -35.555,-321.172c210.555,-23.272 246.111,297.839 35.555,321.172m-61.722,-349.667c-229.833,42.606 -159,417.056 71.111,374.5c265.889,-49.166 194.5,-424.95 -71.111,-374.5"
                          style="fill: dodgerblue; fill-rule: nonzero;"></path>
                </g>
                <g id="g130">
                    <path id="path132"
                          d="M685.834,1031.89c-215.333,23.833 -250.888,-297.278 -35.555,-321.172c210.555,-23.272 246.111,297.839 35.555,321.172Zm-61.722,-349.667c-229.833,42.606 -159,417.056 71.111,374.5c265.889,-49.166 194.5,-424.95 -71.111,-374.5Z"
                          style="fill: rgb(55,53,53); fill-rule: nonzero;"></path>
                </g>
                <g id="g134">
                    <path id="path136"
                          d="M2285.85,474.832c0,0 51.678,-0.672 122.817,-61.072c0,0 -119.461,-87.923 -465.766,-138.928c-353.695,-30.872 -532.217,-4.7 -787.256,118.122c-180.533,93.961 -176.506,131.539 -176.506,131.539l12.078,0c0,0 11.411,-53.017 247.65,-155.7c236.245,-102.683 397.322,-100.672 692.622,-83.895c288.589,36.917 436.911,126.85 436.911,126.85c0,0 -6.711,20.134 -82.55,63.084"
                          style="fill: rgb(190, 192, 194); fill-rule: nonzero;"></path>
                </g>
                <g id="g138">
                    <path id="path140"
                          d="M2097.7,242.841c0,0 31.1,-6.939 46.533,-23.716c0,0 17.456,-6.039 13.422,3.355c-4.027,9.4 -9.394,18.795 -6.711,28.861l-53.244,-8.5Z"
                          style="fill: dodgerblue; fill-rule: nonzero;"></path>
                </g>
                <g id="g142">
                    <path id="path144"
                          d="M248.937,621.81c0,0 109.394,-17.45 193.961,-9.389c0,0 -42.956,67.111 -83.895,69.795c0,0 -51.677,18.794 -89.927,16.777l-5.373,-18.122c0,0 -9.394,3.356 -12.755,-16.105c-3.356,-19.461 -2.011,-42.956 -2.011,-42.956"
                          style="fill: rgb(253, 251, 229); fill-rule: nonzero;"></path>
                </g>
                <g id="g146">
                    <path id="path148"
                          d="M257.663,819.129c0,0 20.134,14.089 71.811,14.089l42.956,51.011c0,0 -74.5,-1.338 -95.306,-12.083c0,0 -19.461,-25.505 -19.461,-53.017"
                          style="fill: rgb(206, 235, 242); fill-rule: nonzero;"></path>
                </g>
                <g id="g150">
                    <path id="path152"
                          d="M812.722,918.446c-3.722,15.111 -11.444,10.056 -11.444,10.056c0,0 -95.278,-36.889 -94.278,-44.945c1,-8.055 103.333,19.772 103.333,19.772c3.723,0.339 6.056,0 2.389,15.117m-22.833,45.333c0,0 -36.945,45.278 -71.167,51.667c-20.111,-0.339 -23.166,-22.167 -23.166,-22.167c0,0 -18.778,-99.333 -29.167,-97.666c-6.056,-7.339 -27.167,113.778 -27.167,113.778l-20.166,6.055c0,0 -44.278,-11.778 -75.5,-51.333l-0.334,-20.167c0,0 101.667,-54.667 100,-65.444c1.334,-9.056 -119.111,8.722 -119.111,8.722l-13.111,-16.783c0,0 1,-53.328 25.167,-83.217c0,0 13.777,-13.722 21.5,-8.006c0,0 86.889,77.506 92.277,72.445c17.778,1.005 -45.277,-108.384 -45.277,-108.384c0,0 3.666,-16.783 14.722,-17.777c0,0 47,-16.111 86.278,-1c14.055,10.05 13.055,22.166 13.055,22.166c0,0 -50.666,97.606 -36.889,104.667c9.389,4.722 85.223,-75.5 85.223,-75.5c0,0 19.111,-2.667 29.222,16.444c10.055,19.106 22.444,48 21.778,75.162c-0.667,27.172 -28.834,15.783 -28.834,15.783c0,0 -98.333,-14.111 -98.666,-4.389c-4.723,7.722 99.666,62.778 99.666,62.778l-0.333,22.166Zm-120.5,59.056c-14.389,0.333 -13.389,-3.722 -13.389,-3.722c0,0 7.722,-108.056 11.389,-104.334c6.055,-2.388 15.444,103.667 15.444,103.667c0,0 1,4.05 -13.444,4.389m-146.945,-101.333c-4.722,-12.778 -1,-15.445 -1,-15.445c0,0 100.667,-28.228 102.667,-21.505c2,6.722 -91.944,46.333 -91.944,46.333c0,0 -5.056,3.339 -9.723,-9.383m57.056,-179.889c0,0 6,-5.056 12.722,11.055c0,0 55.722,86.611 47,83.889c-0.666,9.778 -72.833,-68.778 -77.889,-78.172l18.167,-16.772Zm177.5,10.05c6.056,5.061 1.333,10.061 1.333,10.061c0,0 -64.777,78.222 -69.777,75.161c-5.056,-3 47.277,-90.55 47.277,-90.55c4.389,-10.778 15.111,0.333 21.167,5.328m-106.722,-40.945c-215.334,23.895 -179.778,345.006 35.555,321.173c210.556,-23.334 175,-344.445 -35.555,-321.173"
                          style="fill: rgb(210, 212, 213); fill-rule: nonzero;"></path>
                </g>
                <g id="g154">
                    <path id="path156"
                          d="M818.056,867.442c-0.667,27.172 -28.834,15.784 -28.834,15.784c0,0 -98.333,-14.112 -98.666,-4.389c-4.723,7.716 99.666,62.777 99.666,62.777l-0.333,22.167c0,0 -36.945,45.272 -71.167,51.667c-20.111,-0.339 -23.166,-22.172 -23.166,-22.172c0,0 -18.778,-99.328 -29.167,-97.667c-6.056,-7.333 -27.167,113.783 -27.167,113.783l-20.166,6.056c0,0 -44.278,-11.778 -75.5,-51.339l-0.334,-20.161c0,0 101.667,-54.667 100,-65.45c1.334,-9.056 -119.111,8.728 -119.111,8.728l-13.111,-16.784c0,0 1,-53.333 25.167,-83.216c0,0 13.777,-13.723 21.5,-8.006c0,0 86.889,77.5 92.277,72.444c17.778,1.006 -45.277,-108.388 -45.277,-108.388c0,0 3.666,-16.778 14.722,-17.778c0,0 47,-16.106 86.278,-0.995c14.055,10.05 13.055,22.167 13.055,22.167c0,0 -50.666,97.606 -36.889,104.667c9.389,4.716 85.223,-75.5 85.223,-75.5c0,0 19.111,-2.673 29.222,16.444c10.055,19.106 22.444,47.995 21.778,75.161"
                          style="fill: rgb(77, 76, 78); fill-rule: nonzero;"></path>
                </g>
                <g id="g158">
                    <path id="path160"
                          d="M758.333,761.724c0,0 -64.777,78.222 -69.777,75.161c-5.056,-3 47.277,-90.556 47.277,-90.556c4.389,-10.772 15.111,0.339 21.167,5.334c6.056,5.061 1.333,10.061 1.333,10.061"
                          style="fill: rgb(77, 76, 78); fill-rule: nonzero;"></path>
                </g>
                <g id="g162">
                    <path id="path164"
                          d="M639.223,836.556c-0.667,9.778 -72.834,-68.778 -77.889,-78.167l18.167,-16.777c0,0 6,-5.056 12.722,11.055c0,0 55.722,86.611 47,83.889"
                          style="fill: rgb(77, 76, 78); fill-rule: nonzero;"></path>
                </g>
                <g id="g166">
                    <path id="path168"
                          d="M624.11,884.554c2,6.722 -91.944,46.333 -91.944,46.333c0,0 -5.056,3.334 -9.723,-9.389c-4.722,-12.772 -1,-15.444 -1,-15.444c0,0 100.667,-28.222 102.667,-21.5"
                          style="fill: rgb(77, 76, 78); fill-rule: nonzero;"></path>
                </g>
                <g id="g170">
                    <path id="path172"
                          d="M669.39,1022.84c-14.389,0.333 -13.389,-3.722 -13.389,-3.722c0,0 7.717,-108.056 11.389,-104.334c6.05,-2.388 15.444,103.667 15.444,103.667c0,0 1,4.05 -13.444,4.389"
                          style="fill: rgb(77, 76, 78); fill-rule: nonzero;"></path>
                </g>
                <g id="g174">
                    <path id="path176"
                          d="M812.722,918.446c-3.722,15.111 -11.444,10.056 -11.444,10.056c0,0 -95.278,-36.889 -94.278,-44.945c1,-8.055 103.333,19.772 103.333,19.772c3.723,0.339 6.056,0 2.389,15.117"
                          style="fill: rgb(77, 76, 78); fill-rule: nonzero;"></path>
                </g>
            </g>
        </g>
    </g>
</svg>

